<?xml version="1.0" encoding="UTF-8" standalone="no"?>
<!-- Created with Inkscape (http://www.inkscape.org/) -->

<svg
   xmlns:dc="http://purl.org/dc/elements/1.1/"
   xmlns:cc="http://creativecommons.org/ns#"
   xmlns:rdf="http://www.w3.org/1999/02/22-rdf-syntax-ns#"
   xmlns:svg="http://www.w3.org/2000/svg"
   xmlns="http://www.w3.org/2000/svg"
   xmlns:sodipodi="http://sodipodi.sourceforge.net/DTD/sodipodi-0.dtd"
   xmlns:inkscape="http://www.inkscape.org/namespaces/inkscape"
   width="130mm"
   height="136mm"
   viewBox="0 0 130 136"
   version="1.1"
   id="svg8"
   inkscape:version="0.92.2 (30a58d1, 2017-08-07)"
   sodipodi:docname="h.svg">
   <defs>
     <style>
       #stroke-H{
         stroke-dasharray: 800;
         stroke-dashoffset: 0;
         animation: dash 1.5s 1 forwards;
         animation-delay: 0.8s;
         margin-left: -20px;
       }

       @keyframes dash{
         from{
           stroke-dashoffset: 800;
         }
         to{
           stroke-dashoffset: 0;
         }
       }
     </style>
   </defs>
  <sodipodi:namedview
     id="base"
     pagecolor="#ffffff"
     bordercolor="#666666"
     borderopacity="1.0"
     inkscape:pageopacity="0.0"
     inkscape:pageshadow="2"
     inkscape:zoom="0.35"
     inkscape:cx="400"
     inkscape:cy="217.14286"
     inkscape:document-units="mm"
     inkscape:current-layer="layer1"
     showgrid="false"
     inkscape:window-width="1301"
     inkscape:window-height="744"
     inkscape:window-x="65"
     inkscape:window-y="24"
     inkscape:window-maximized="1" />
  <metadata
     id="metadata5">
    <rdf:RDF>
      <cc:Work
         rdf:about="">
        <dc:format>image/svg+xml</dc:format>
        <dc:type
           rdf:resource="http://purl.org/dc/dcmitype/StillImage" />
        <dc:title></dc:title>
      </cc:Work>
    </rdf:RDF>
  </metadata>
  <g
     inkscape:label="Layer 1"
     inkscape:groupmode="layer"
     id="layer1"
     transform="translate(0,-161)">
    <path
       id="stroke-H"
       style="fill:none;stroke:#000000;stroke-width:1px;stroke-linecap:butt;stroke-linejoin:miter;stroke-opacity:1"
       d="m 19.676102,187.75284 c 1.159632,-0.2819 2.369069,-0.41403 3.478896,-0.8457 0.380669,-0.14808 0.528591,-0.62456 0.869725,-0.84571 0.53938,-0.34966 1.137558,-0.61159 1.739448,-0.8457 0.851198,-0.33107 1.757972,-0.51464 2.609172,-0.84572 0.601887,-0.2341 1.137559,-0.6116 1.739447,-0.84569 0.8512,-0.33108 1.823051,-0.38706 2.609172,-0.84571 0.703129,-0.41023 1.036317,-1.28119 1.739449,-1.69142 0.786122,-0.45864 1.757973,-0.51463 2.609172,-0.84569 1.988068,-0.77328 2.3067,-1.34581 4.348619,-2.53713 1.651693,-0.96364 3.61652,-1.49872 5.218345,-2.53711 0.682266,-0.44228 1.006032,-1.33483 1.739446,-1.69142 0.259304,-0.12606 0.66473,0.19933 0.869727,0 0.204994,-0.19934 -0.204997,-0.64636 0,-0.84569 0.204994,-0.19934 0.664725,0.19933 0.869722,0 0.204996,-0.19934 -0.204997,-0.64638 0,-0.84571 1.159632,-1.1276 0.869724,1.40951 0.869724,-0.8457 0,-0.2819 0,-0.56382 0,-0.84572 0,-0.2819 0.259303,-0.71962 0,-0.8457 -0.369647,-0.17972 -3.619792,0 -4.348619,0 -0.454796,0 -3.250209,-0.1112 -3.478895,0 -1.923007,0.93495 -0.269897,0.52489 -0.869727,1.69142 -0.183353,0.35658 -0.686369,0.48912 -0.869723,0.8457 -0.132342,0.25738 0,2.15625 0,2.53712 0,2.5371 0,5.07423 0,7.61135 0,13.24938 0,26.49877 0,39.74816 0,4.79232 0,9.58466 0,14.37698 0,1.69142 0,3.38283 0,5.07423 0,0.28191 0,0.5638 0,0.84571 0,0.28191 0.129653,0.59357 0,0.84571 -0.183355,0.35658 -0.686368,0.48911 -0.869723,0.84569 -0.259303,0.50428 0.259301,1.18715 0,1.69143 -0.183355,0.35658 -0.686372,0.48912 -0.869726,0.8457 -0.2593,0.50428 0.259303,1.18713 0,1.69141 -0.183351,0.35658 -0.686368,0.48912 -0.869723,0.8457 -0.156433,0.30423 0.0051,4.20401 0,4.22854 -0.254265,1.23621 -1.329455,2.18681 -1.739447,3.38281 -0.09167,0.26744 0.09167,0.57827 0,0.84571 -0.204998,0.598 -0.664729,1.0934 -0.869726,1.6914 -0.112807,0.32909 0.13497,2.40588 0,2.53713 -0.204994,0.19933 -0.664725,-0.19935 -0.869722,0 -0.204998,0.19933 0.09167,0.57827 0,0.8457 -0.204998,0.598 -0.66473,1.09341 -0.869724,1.69141 -0.09167,0.26744 0.129649,0.59357 0,0.84571 -0.366708,0.71316 -1.372741,0.97824 -1.739449,1.6914 -0.129651,0.25216 0.129651,0.59357 0,0.8457 -0.183354,0.35658 -0.686369,0.48914 -0.869724,0.84572 -0.129651,0.25214 0.129653,0.59356 0,0.84569 -0.183355,0.3566 -0.686372,0.48915 -0.869723,0.84572 -0.12965,0.25214 0.12965,0.59356 0,0.84571 -0.183354,0.35658 -0.579818,0.5638 -0.869725,0.84571 -0.289908,0.28189 -0.503015,0.6674 -0.869724,0.8457 -0.259301,0.12607 -0.664728,-0.19934 -0.869723,0 -0.204996,0.19933 0,0.5638 0,0.8457 0,0.5638 0,1.12761 0,1.69141 0,1.97331 0,3.94663 0,5.91994 0,0.38087 0.132343,2.27973 0,2.53711 -0.366709,0.71317 -1.372741,0.97826 -1.739449,1.6914 -0.129651,0.25216 0.204995,0.64639 0,0.84573 -0.204996,0.19933 -0.664728,-0.19934 -0.869723,0 -0.204997,0.19933 0.204995,0.64636 0,0.84571 -0.204997,0.19933 -0.664728,-0.19935 -0.869725,0 -0.204995,0.19933 0.129651,0.59355 0,0.84569 -0.183354,0.35659 -0.68637,0.48913 -0.869723,0.84572 -0.129652,0.25213 0.204995,0.64637 0,0.8457 -0.204997,0.19933 -0.610422,-0.12607 -0.869725,0 -0.366707,0.17828 -0.503017,0.66742 -0.869724,0.8457 -0.2593,0.12607 -0.664728,-0.19933 -0.869724,0 -0.204996,0.19933 0.204996,0.64637 0,0.8457 -0.204996,0.19934 -0.579816,0 -0.869724,0 -0.289908,0 -0.664727,0.19934 -0.869724,0 -0.02797,-0.0272 0,-2.33201 0,-2.5371 0,-0.45179 -0.124458,-3.98649 0,-4.22854 0.183355,-0.35659 0.686371,-0.48912 0.869724,-0.84571 0.129652,-0.25213 0,-0.5638 0,-0.8457 0.289908,-0.5638 0.510138,-1.16693 0.869724,-1.69141 0.227422,-0.3317 0.740073,-0.4675 0.869724,-0.84571 0.183354,-0.53487 -0.183353,-1.15654 0,-1.6914 0.129651,-0.37821 0.740074,-0.4675 0.869724,-0.84571 0.183355,-0.53488 -0.183353,-1.15653 0,-1.69141 0.129651,-0.37821 0.740073,-0.46749 0.869725,-0.84571 0.183353,-0.53487 -0.183355,-1.15654 0,-1.69141 0.12965,-0.37822 0.740073,-0.46749 0.869723,-0.8457 0.183354,-0.53488 -0.183354,-1.15654 0,-1.69141 0.129651,-0.37822 0.740074,-0.46749 0.869725,-0.84571 0.260917,-0.76114 -0.260917,-1.77599 0,-2.53713 0.204995,-0.59799 0.510136,-1.16691 0.869723,-1.6914 0.227423,-0.33171 0.740074,-0.46749 0.869723,-0.8457 0.183355,-0.53487 -0.183352,-1.15654 0,-1.69141 0.129652,-0.37822 0.642303,-0.51399 0.869726,-0.84571 0.289908,-0.5638 0.579816,-1.12761 0.869723,-1.69141 0,-0.28191 -0.129651,-0.59356 0,-0.8457 0.366709,-0.71317 1.284604,-1.02798 1.739449,-1.69142 0.289908,-0.5638 0.579816,-1.1276 0.869723,-1.69141 0,-0.2819 -0.129651,-0.59357 0,-0.8457 0.427916,-0.83221 3.050978,-2.55063 3.478897,-3.38283 0.129651,-0.25214 -0.129652,-0.59356 0,-0.84571 0.366708,-0.71315 1.37274,-0.97825 1.739448,-1.6914 0.129649,-0.25213 -0.129651,-0.59357 0,-0.84571 0.521833,-1.01484 2.087337,-1.52227 2.60917,-2.53711 0.129652,-0.25214 -0.129648,-0.59356 0,-0.8457 1.809794,-3.51963 -0.06005,0.9041 1.739449,-0.84571 0.204997,-0.19934 -0.204998,-0.64637 0,-0.84572 0.204997,-0.19933 0.610424,0.12609 0.869723,0 0.733417,-0.35658 1.006032,-1.33482 1.73945,-1.6914 0.2593,-0.12608 0.610422,0.12608 0.869723,0 1.043668,-0.50742 1.565503,-2.02969 2.609173,-2.53711 0.259301,-0.12607 0.610422,0.12606 0.869722,0 0.36671,-0.1783 0.503017,-0.66742 0.869727,-0.84571 0.2593,-0.12607 0.61042,0.12606 0.869722,0 0.865858,-0.42097 0.873589,-1.27043 1.739447,-1.69141 0.259303,-0.12608 0.610423,0.12606 0.869727,0 0.366704,-0.1783 0.503014,-0.66741 0.869722,-0.84571 0.259304,-0.12607 0.664729,0.19934 0.869724,0 0.204997,-0.19933 -0.204995,-0.64636 0,-0.8457 0.409991,-0.39866 1.329458,0.39867 1.739449,0 0.204994,-0.19933 -0.204998,-0.64637 0,-0.84571 0.409991,-0.39868 1.329455,0.39867 1.739446,0 0.204997,-0.19933 -0.204994,-0.64637 0,-0.84571 0.204997,-0.19933 0.579819,0 0.869726,0 0.289908,0 0.579816,0 0.869723,0 4.058712,0 8.117425,0 12.176136,0 1.159632,0 2.319265,0 3.478896,0 0.289907,0 0.740074,-0.25213 0.869723,0 0.259303,0.50428 -0.183352,1.15655 0,1.69142 0.129652,0.37821 0.740075,0.4675 0.869725,0.8457 0.183355,0.53487 0,1.1276 0,1.69142 0,1.69141 0,3.38281 0,5.07423 0,0.69237 -0.187837,3.68058 0,4.22853 0.204996,0.598 0.664728,1.0934 0.869725,1.6914 0.163564,0.47714 0,1.9814 0,2.53711 0,1.69143 0,3.38283 0,5.07424 0,0.38087 -0.132343,2.27974 0,2.53711 0.183354,0.35659 0.740074,0.4675 0.869722,0.84572 0.183356,0.53487 0,1.1276 0,1.69141 0,0.2819 -0.129648,0.59356 0,0.8457 0.36671,0.71317 1.372741,0.97825 1.739449,1.69141 0.129653,0.25215 -0.12965,0.59357 0,0.84571 0.183355,0.35658 0.579816,0.5638 0.869724,0.8457 0.579815,0.56381 1.159634,1.12761 1.73945,1.6914 0.869722,0.84572 1.62519,1.81952 2.609171,2.53713 0.518604,0.37822 1.200068,0.49605 1.739448,0.84571 0.791721,0.51324 1.838303,2.16233 2.609171,2.53711 0.259304,0.12606 0.664728,-0.19933 0.869724,0 0.204997,0.19933 -0.204996,0.64636 0,0.84572 0.204997,0.19933 0.579814,0 0.869725,0 1.159632,0 2.319263,0 3.478896,0 2.319261,0 4.638527,0 6.957789,0 0.39169,0 2.34449,0.12868 2.60918,0 0.3667,-0.17829 0.50301,-0.66744 0.86972,-0.84572 0.25931,-0.12607 0.66473,0.19933 0.86971,0 0.20501,-0.19933 -0.12964,-0.59357 0,-0.8457 0.52185,-1.01484 2.08734,-1.52228 2.60918,-2.53712 0.12965,-0.25215 -0.205,-0.64636 0,-0.84572 0.20499,-0.19933 0.66473,0.19936 0.86973,0 0.20499,-0.19933 -0.12965,-0.59355 0,-0.84569 1.04131,-2.02512 1.73944,0.53295 1.73944,-1.69142"
       inkscape:connector-curvature="0" />
  </g>
</svg>
