<svg
   xmlns:dc="http://purl.org/dc/elements/1.1/"
   xmlns:cc="http://creativecommons.org/ns#"
   xmlns:rdf="http://www.w3.org/1999/02/22-rdf-syntax-ns#"
   xmlns:svg="http://www.w3.org/2000/svg"
   xmlns="http://www.w3.org/2000/svg"
   xmlns:sodipodi="http://sodipodi.sourceforge.net/DTD/sodipodi-0.dtd"
   xmlns:inkscape="http://www.inkscape.org/namespaces/inkscape"
   width="130mm"
   height="136mm"
   viewBox="0 0 130 136"
   version="1.1"
   id="svg8"
   inkscape:version="0.92.2 (30a58d1, 2017-08-07)"
   sodipodi:docname="drawing.svg">
  <defs>
    <style>
      #stroke-J{
        stroke-dasharray: 800;
        stroke-dashoffset: 0;
        animation: dash 2s linear forwards;
      }

      @keyframes dash{
        from{
          stroke-dashoffset: 800;
        }
        to{
          stroke-dashoffset: 0;
        }
      }
    </style>
  </defs>
  <sodipodi:namedview
     id="base"
     pagecolor="#ffffff"
     bordercolor="#666666"
     borderopacity="1.0"
     inkscape:pageopacity="0.0"
     inkscape:pageshadow="2"
     inkscape:zoom="0.35"
     inkscape:cx="456.95034"
     inkscape:cy="460.04525"
     inkscape:document-units="mm"
     inkscape:current-layer="layer1"
     showgrid="false"
     inkscape:window-width="1301"
     inkscape:window-height="744"
     inkscape:window-x="65"
     inkscape:window-y="24"
     inkscape:window-maximized="1" />
  <metadata
     id="metadata5">
    <rdf:RDF>
      <cc:Work
         rdf:about="">
        <dc:format>image/svg+xml</dc:format>
        <dc:type
           rdf:resource="http://purl.org/dc/dcmitype/StillImage" />
        <dc:title></dc:title>
      </cc:Work>
    </rdf:RDF>
  </metadata>
  <g
     inkscape:label="Layer 1"
     inkscape:groupmode="layer"
     id="layer1"
     transform="translate(0,-161)">
    <path
       id="stroke-J"
       style="fill:none;stroke:#000000;stroke-width:1px;stroke-linecap:butt;stroke-linejoin:miter;stroke-opacity:1"
       d="m 26.458333,185.875 c 5.57385,-2.09019 6.804411,-2.87275 12.851191,-3.77976 2.752463,-0.41287 5.546031,-0.47901 8.315475,-0.75595 2.27049,-0.22705 4.524912,-0.63603 6.803573,-0.75596 4.277807,-0.22514 8.567459,0 12.851188,0 3.527779,0 7.055556,0 10.583333,0 1.259922,0 2.519841,0 3.779763,0 0.503968,0 1.022983,0.12223 1.511904,0 0.546632,-0.13665 0.988753,-0.54669 1.511906,-0.75595 5.481095,-2.19244 -0.258834,0.0518 3.77976,-0.75595 0.78137,-0.15628 1.486488,-0.59968 2.267858,-0.75595 0.988364,-0.19768 2.045967,0.24446 3.023809,0 0.546632,-0.13666 0.977365,-0.57778 1.511906,-0.75596 0.416777,-0.13892 2.862188,0.16162 3.023809,0 0.178181,-0.17818 -0.178178,-0.57777 0,-0.75595 0.178181,-0.17818 0.503968,0 0.755952,0 0.251986,0 0.577773,-0.17818 0.755954,0 0.178178,0.17818 0,0.50397 0,0.75595 0,0.25199 0.139774,0.54629 0,0.75596 -0.395346,0.59301 -1.145215,0.90075 -1.511906,1.5119 -0.409972,0.68329 -0.503968,1.51191 -0.755952,2.26786 -0.251984,0.75595 -0.503967,1.5119 -0.755951,2.26785 -0.251987,0.75596 -0.503971,1.51191 -0.755955,2.26786 -0.251983,0.75595 -0.64326,1.47902 -0.755951,2.26786 -0.142544,0.9978 0,2.01587 0,3.02381 0,0.75595 0,1.5119 0,2.26786 0,2.51984 0,5.03968 0,7.55952 0,8.56746 0,17.13492 0,25.70238 0,10.58333 0,21.16667 0,31.75 0,3.52778 0,7.05555 0,10.58333 0,0.29884 0.161427,3.45691 0,3.77976 -0.711004,1.42201 -1.628873,0.47697 -3.023809,0.75596 -0.552511,0.1105 -0.956117,0.66332 -1.511906,0.75595 -0.994222,0.1657 -2.026002,-0.14254 -3.023809,0 -0.788834,0.11269 -1.481855,0.62495 -2.267858,0.75595 -0.745667,0.12428 -1.52219,-0.12428 -2.267857,0 -0.786001,0.131 -1.486488,0.59968 -2.267855,0.75595 -0.494184,0.0988 -1.017725,-0.0988 -1.511906,0 -0.78137,0.15628 -1.481855,0.62496 -2.267857,0.75596 -0.745668,0.12427 -1.526585,-0.14826 -2.267858,0 -0.552511,0.1105 -0.988751,0.54669 -1.511903,0.75595 -1.479704,0.59188 -3.110278,0.79918 -4.535715,1.5119 -0.812626,0.40632 -1.488789,1.04447 -2.267858,1.51191 -0.483158,0.28989 -1.028747,0.46606 -1.511903,0.75595 -0.779068,0.46744 -1.455235,1.10559 -2.267857,1.51191 -0.712719,0.35636 -1.511906,0.50396 -2.267858,0.75595 -0.755952,0.25198 -1.511906,0.50397 -2.267857,0.75595 -0.755952,0.25198 -1.481855,0.62495 -2.267858,0.75595 -0.745667,0.12428 -1.511903,0 -2.267857,0 -2.015871,0 -4.031745,0 -6.047619,0 -1.511905,0 -3.023809,0 -4.535715,0 -0.755951,0 -1.550696,0.23906 -2.267857,0 -0.861917,-0.2873 -1.511903,-1.00793 -2.267855,-1.5119 -0.755954,-0.50397 -1.569897,-0.93027 -2.267857,-1.51191 -0.821291,-0.6844 -1.433047,-1.60001 -2.267858,-2.26786 -4.031747,-2.01587 0.755952,0.75596 -2.267857,-2.26785 -1.007936,-1.00794 -0.725382,1.60362 -1.511906,-0.75595 -0.159367,-0.47811 0.159369,-1.0338 0,-1.51191 -0.112689,-0.33807 -0.596583,-0.43721 -0.755952,-0.75595 -0.09938,-0.19877 0,-2.62851 0,-3.02381 0,-2.01587 0,-4.03175 0,-6.04762 0,-0.71198 0.143343,-3.34973 0,-3.77976 -0.112691,-0.33807 -0.64326,-0.41788 -0.755952,-0.75595 -0.159369,-0.47811 0,-1.00794 0,-1.51191 0,-0.75595 0,-1.5119 0,-2.26785 0,-1.76389 0,-3.52778 0,-5.29167"
       inkscape:connector-curvature="0" />
  </g>
</svg>
